<svg width="80" height="75" viewBox="0 0 80 75" fill="none" xmlns="http://www.w3.org/2000/svg">
<path d="M79.1232 14.6821V20.1691C77.7936 20.1691 40.8257 20.1691 39.0576 20.1691C35.8138 20.1691 33.0229 17.7644 33.0229 14.6821C33.0229 11.7326 35.6677 9.19507 39.0576 9.19507H73.0886C76.3178 9.31464 79.1232 11.7326 79.1232 14.6821Z" fill="white"/>
<path d="M76.7557 0.878174C77.4863 0.878174 78.0854 1.42351 78.0854 2.08855C78.0854 2.75359 77.4863 3.29893 76.7557 3.29893C76.0251 3.29893 75.426 2.75359 75.426 2.08855C75.4406 1.42351 76.0251 0.878174 76.7557 0.878174Z" fill="#F8A300"/>
<path d="M75.879 35.3013C76.6096 35.3013 77.2087 35.8466 77.2087 36.5116C77.2087 37.1767 76.6096 37.722 75.879 37.722C75.1484 37.722 74.5493 37.1767 74.5493 36.5116C74.5493 35.8466 75.1484 35.3013 75.879 35.3013Z" fill="#F8A300"/>
<path d="M72.6354 60.7567C70.429 63.5733 66.8929 65.3137 62.9185 65.3137C58.9441 65.3137 55.2619 63.4404 53.2017 60.7567C55.408 57.9401 58.9441 56.1997 62.9185 56.1997C66.8929 56.1997 70.429 57.9401 72.6354 60.7567Z" fill="white"/>
<path d="M67.6236 70.4026C68.3542 70.4026 68.9533 70.9479 68.9533 71.613C68.9533 72.278 68.3542 72.8233 67.6236 72.8233C66.893 72.8233 66.2939 72.278 66.2939 71.613C66.2939 70.9346 66.893 70.4026 67.6236 70.4026Z" fill="#F8A300"/>
<path d="M62.9182 47.7634C65.4168 47.7634 67.4917 49.6367 67.4917 51.9219C67.4917 54.1937 65.4315 56.0803 62.9182 56.0803C60.4196 56.0803 58.3447 54.207 58.3447 51.9219C58.3447 49.6367 60.2589 47.7634 62.9182 47.7634Z" fill="white"/>
<path d="M46.8599 67.0542C48.9202 67.0542 50.5421 68.5289 50.5421 70.4022C50.5421 72.2755 48.9202 73.7502 46.8599 73.7502C44.7996 73.7502 43.1777 72.2755 43.1777 70.4022C43.1777 68.5289 44.785 67.0542 46.8599 67.0542Z" fill="white"/>
<path d="M49.2125 55.6686C47.0061 58.4851 43.4701 60.2256 39.4957 60.2256C35.5213 60.2256 31.8391 58.4851 29.7788 55.6686C31.9852 52.852 35.5213 51.1116 39.4957 51.1116C43.4701 51.1116 47.0061 52.9849 49.2125 55.6686Z" fill="white"/>
<path d="M39.4812 42.8079C41.9798 42.8079 44.0547 44.6811 44.0547 46.9663C44.0547 49.2381 41.9944 51.1247 39.4812 51.1247C36.9826 51.1247 34.9077 49.2514 34.9077 46.9663C34.9223 44.6811 36.9826 42.8079 39.4812 42.8079Z" fill="white"/>
<path d="M33.4469 67.0542C34.1775 67.0542 34.7765 67.5995 34.7765 68.2646C34.7765 68.9296 34.1775 69.475 33.4469 69.475C32.7163 69.475 32.1172 68.9296 32.1172 68.2646C32.1172 67.5862 32.7163 67.0542 33.4469 67.0542Z" fill="#F8A300"/>
<path d="M29.7642 2.61865C30.4948 2.61865 31.0939 3.16399 31.0939 3.82903C31.0939 4.49407 30.4948 5.0394 29.7642 5.0394C29.0337 5.0394 28.4346 4.49407 28.4346 3.82903C28.4346 3.16399 29.0337 2.61865 29.7642 2.61865Z" fill="#F8A300"/>
<path d="M25.7902 60.7567C23.5838 63.5733 20.0477 65.3137 16.0733 65.3137C12.0989 65.3137 8.41671 63.4404 6.35645 60.7567C8.56283 57.9401 12.0989 56.1997 16.0733 56.1997C20.0477 56.1997 23.7299 57.9401 25.7902 60.7567Z" fill="white"/>
<path d="M16.0584 47.7634C18.557 47.7634 20.6319 49.6367 20.6319 51.9219C20.6319 54.1937 18.5716 56.0803 16.0584 56.0803C13.5597 56.0803 11.4849 54.207 11.4849 51.9219C11.4995 49.6367 13.5597 47.7634 16.0584 47.7634Z" fill="white"/>
<path d="M11.7915 3.42896C14.8016 3.42896 17.2417 5.64767 17.2417 8.38453C17.2417 11.1214 14.8016 13.3401 11.7915 13.3401C8.78148 13.3401 6.34131 11.1214 6.34131 8.38453C6.34131 5.64767 8.78148 3.42896 11.7915 3.42896Z" fill="white"/>
<path d="M1.32968 36.9092C2.06027 36.9092 2.65935 37.4545 2.65935 38.1196C2.65935 38.7846 2.06027 39.3299 1.32968 39.3299C0.599084 39.3299 0 38.7846 0 38.1196C0 37.4545 0.599084 36.9092 1.32968 36.9092Z" fill="#F8A300"/>
<path d="M25.7898 61.5543C25.4976 61.5543 25.2053 61.4214 25.0592 61.1557C22.999 58.472 19.609 56.8644 16.073 56.8644C12.5369 56.8644 9.14696 58.472 7.08669 61.1557C6.79445 61.5543 6.20998 61.5543 5.75702 61.2886C5.31866 61.1557 5.31866 60.6243 5.6109 60.2124C7.9634 57.1301 11.9378 55.2568 16.073 55.2568C20.1935 55.2568 24.1679 57.1301 26.535 60.2124C26.8273 60.611 26.6811 61.1557 26.3889 61.4214C26.2282 61.5543 26.0821 61.5543 25.7898 61.5543Z" fill="#F8A300"/>
<path d="M16.0582 57.0106C12.9605 57.0106 10.4619 54.7387 10.4619 51.9222C10.4619 49.1056 12.9605 46.8337 16.0582 46.8337C19.1559 46.8337 21.6546 49.1056 21.6546 51.9222C21.6692 54.7255 19.1559 57.0106 16.0582 57.0106ZM16.0582 48.5609C13.998 48.5609 12.3761 50.0356 12.3761 51.9089C12.3761 53.7822 13.998 55.2569 16.0582 55.2569C18.1185 55.2569 19.7404 53.7822 19.7404 51.9089C19.7404 50.0356 18.1331 48.5609 16.0582 48.5609Z" fill="#F8A300"/>
<path d="M49.2122 56.5985C48.9199 56.5985 48.6277 56.4656 48.4816 56.1999C46.4213 53.5162 43.0314 51.9086 39.4953 51.9086C35.9593 51.9086 32.5693 53.5162 30.5091 56.1999C30.2168 56.5985 29.6323 56.5985 29.1794 56.3328C28.741 56.0671 28.741 55.5356 29.0333 55.1238C31.3858 52.0415 35.3602 50.1682 39.4953 50.1682C43.6159 50.1682 47.6049 52.0415 49.9574 55.1238C50.2496 55.5224 50.1035 56.0671 49.8113 56.3328C49.6505 56.4656 49.3583 56.5985 49.2122 56.5985Z" fill="#F8A300"/>
<path d="M39.4806 51.9088C36.3829 51.9088 33.8843 49.6369 33.8843 46.8204C33.8843 44.0038 36.3829 41.7319 39.4806 41.7319C42.5783 41.7319 45.0769 44.0038 45.0769 46.8204C45.0915 49.6369 42.5783 51.9088 39.4806 51.9088ZM39.4806 43.6052C37.4203 43.6052 35.7984 45.0799 35.7984 46.9532C35.7984 48.8265 37.4203 50.3012 39.4806 50.3012C41.5409 50.3012 43.1628 48.8265 43.1628 46.9532C43.1774 45.0799 41.5555 43.6052 39.4806 43.6052Z" fill="#F8A300"/>
<path d="M72.6355 61.5541C72.3433 61.5541 72.051 61.4212 71.9049 61.1555C69.8447 58.4718 66.4547 56.8642 62.9187 56.8642C59.3826 56.8642 55.9927 58.4718 53.9324 61.1555C53.6402 61.5541 53.0411 61.5541 52.6027 61.2884C52.1644 61.0226 52.1644 60.4912 52.4566 60.0794C54.8091 56.9971 58.7981 55.1238 62.9187 55.1238C67.0392 55.1238 71.0136 56.9971 73.3807 60.0794C73.673 60.4779 73.5268 61.0226 73.2346 61.2884C72.9278 61.5541 72.7816 61.5541 72.6355 61.5541Z" fill="#F8A300"/>
<path d="M62.9186 57.0106C59.8209 57.0106 57.3223 54.7387 57.3223 51.9222C57.3223 49.1056 59.8209 46.8337 62.9186 46.8337C66.0163 46.8337 68.5149 49.1056 68.5149 51.9222C68.5149 54.7255 65.8556 57.0106 62.9186 57.0106ZM62.9186 48.5609C60.8583 48.5609 59.2364 50.0356 59.2364 51.9089C59.2364 53.7822 60.8583 55.2569 62.9186 55.2569C64.9789 55.2569 66.6008 53.7822 66.6008 51.9089C66.6008 50.0356 64.8327 48.5609 62.9186 48.5609Z" fill="#F8A300"/>
<path d="M16.0582 66.2439C11.9377 66.2439 7.94866 64.3706 5.59616 61.2883C4.12036 59.2822 3.24365 56.997 3.24365 54.5923C3.24365 48.162 8.9861 42.8079 16.2043 42.8079C23.4226 42.8079 29.165 48.0291 29.165 54.5923C29.165 56.997 28.2883 59.415 26.8125 61.2883C24.1678 64.3706 20.1934 66.2439 16.0582 66.2439ZM7.07195 60.2254C9.13222 62.9091 12.5222 64.5167 16.0582 64.5167C19.5943 64.5167 22.9842 62.9091 25.0445 60.2254C26.3742 58.485 27.1048 56.4789 27.1048 54.4594C27.1048 48.9724 22.0929 44.4154 16.0582 44.4154C10.0235 44.4154 5.01168 48.9724 5.01168 54.4594C5.01168 56.5984 5.75689 58.6179 7.07195 60.2254Z" fill="#F8A300"/>
<path d="M39.4806 61.1557C35.36 61.1557 31.3856 59.2824 29.0185 56.2002C27.5427 54.194 26.666 51.9089 26.666 49.5042C26.666 43.0739 32.4085 37.7197 39.6267 37.7197C46.8449 37.7197 52.5874 42.941 52.5874 49.5042C52.5874 51.9089 51.6961 54.3269 50.2349 56.2002C47.5901 59.2824 43.6157 61.1557 39.4806 61.1557ZM30.4943 55.2569C32.5546 57.9406 35.9445 59.5482 39.4806 59.5482C43.0166 59.5482 46.4066 57.9406 48.4668 55.2569C49.7965 53.5164 50.5271 51.5103 50.5271 49.4909C50.5271 44.0039 45.5153 39.4469 39.4806 39.4469C33.4459 39.4469 28.434 44.0039 28.434 49.4909C28.434 51.5103 29.1792 53.5164 30.4943 55.2569Z" fill="#F8A300"/>
<path d="M62.9186 66.2439C58.798 66.2439 54.809 64.3706 52.4565 61.2883C50.9807 59.2822 50.104 56.997 50.104 54.5923C50.104 48.162 55.8464 42.8079 62.9186 42.8079C69.9907 42.8079 75.8793 48.0291 75.8793 54.5923C75.8793 56.997 74.9879 59.415 73.5268 61.2883C71.0135 64.3706 67.0391 66.2439 62.9186 66.2439ZM53.7716 60.2254C55.8318 62.9091 59.2218 64.5167 62.7578 64.5167C66.2939 64.5167 69.6838 62.9091 71.7441 60.2254C73.0738 58.485 73.8044 56.4789 73.8044 54.4594C73.8044 48.9724 68.7925 44.4154 62.7578 44.4154C56.7232 44.4154 51.7113 48.9724 51.7113 54.4594C51.8574 56.5984 52.4565 58.6179 53.7716 60.2254Z" fill="#F8A300"/>
<path d="M79.1234 20.9664H66.7472C66.3088 20.9664 65.8705 20.5679 65.8705 20.1693C65.8705 19.7707 66.3088 19.3722 66.7472 19.3722H78.2321V14.8152C78.2321 12.2643 76.0257 10.2582 73.2202 10.2582H39.0432C37.7135 10.2582 36.3838 10.7896 35.5071 11.6C34.6158 12.4104 34.0313 13.6062 34.0313 14.8152C34.0313 17.366 36.2377 19.3722 39.0432 19.3722C39.4815 19.3722 39.9199 19.7707 39.9199 20.1693C39.9199 20.5679 39.4815 20.9664 39.0432 20.9664C35.2149 20.9664 32.1172 18.1499 32.1172 14.669C32.1172 12.9286 32.8478 11.4539 34.1775 10.2449C35.5071 9.03587 37.2752 8.37158 39.0432 8.37158H73.0741C76.9024 8.37158 80.0001 11.1882 80.0001 14.669V20.156C80.0001 20.5679 79.5618 20.9664 79.1234 20.9664Z" fill="#F8A300"/>
<path d="M8.10962 39.4598C7.9635 39.4598 7.81738 39.4598 7.67126 39.3269C7.37903 39.1941 7.23291 38.9283 7.23291 38.5298V26.3468C7.23291 22.4673 10.769 19.2522 15.0356 19.2522H66.6007C68.661 19.2522 70.7213 20.0493 72.1971 21.3912C73.6728 22.7331 74.5496 24.4735 74.5496 26.4796C74.5496 30.3591 71.0135 33.5742 66.7468 33.5742H18.1333L8.7087 39.3402C8.54797 39.3269 8.40185 39.4598 8.10962 39.4598ZM15.0356 20.9661C11.7918 20.9661 9.00094 23.3708 9.00094 26.4531V37.0285L17.2566 32.0729C17.4027 31.9401 17.5489 31.9401 17.695 31.9401H66.4546C69.6984 31.9401 72.4893 29.5353 72.4893 26.4531C72.4893 24.9783 71.9048 23.6365 70.7213 22.5736C69.5377 21.4975 68.0765 20.9661 66.4546 20.9661H15.0356Z" fill="#F8A300"/>
<path d="M11.7918 14.2701C8.25579 14.2701 5.3042 11.5864 5.3042 8.37127C5.3042 5.15613 8.25579 2.47241 11.7918 2.47241C15.3279 2.47241 18.2795 5.15613 18.2795 8.37127C18.2795 11.5997 15.3279 14.2701 11.7918 14.2701ZM11.7918 4.22613C9.29323 4.22613 7.21835 6.09941 7.21835 8.38456C7.21835 10.6564 9.27861 12.543 11.7918 12.543C14.2905 12.543 16.3653 10.6697 16.3653 8.38456C16.5115 6.09941 14.4366 4.22613 11.7918 4.22613Z" fill="#F8A300"/>
<path d="M46.8601 74.5476C44.3615 74.5476 42.2866 72.6743 42.2866 70.3891C42.2866 68.1173 44.3469 66.2307 46.8601 66.2307C49.3587 66.2307 51.4336 68.104 51.4336 70.3891C51.419 72.6743 49.3587 74.5476 46.8601 74.5476ZM46.8601 67.8516C45.3843 67.8516 44.0546 68.9277 44.0546 70.4024C44.0546 71.7443 45.2382 72.9533 46.8601 72.9533C48.482 72.9533 49.6656 71.8771 49.6656 70.4024C49.651 68.9277 48.3213 67.8516 46.8601 67.8516Z" fill="#F8A300"/>
</svg>
