<svg width="80" height="75" viewBox="0 0 80 75" fill="none" xmlns="http://www.w3.org/2000/svg">
<path d="M74.4138 3.28101C76.9079 3.28101 78.979 5.22475 78.979 7.59584C78.979 9.96693 76.9225 11.9107 74.4138 11.9107C71.9197 11.9107 69.8486 9.96693 69.8486 7.59584C69.8486 5.22475 71.9197 3.28101 74.4138 3.28101Z" fill="white"/>
<path d="M76.7618 33.7192C77.4911 33.7192 78.0891 34.2851 78.0891 34.9751C78.0891 35.6652 77.4911 36.231 76.7618 36.231C76.0326 36.231 75.4346 35.6652 75.4346 34.9751C75.4346 34.2851 76.0326 33.7192 76.7618 33.7192Z" fill="#F8A300"/>
<path d="M67.6464 55.4205C68.3794 55.4205 68.9736 54.8582 68.9736 54.1646C68.9736 53.471 68.3794 52.9087 67.6464 52.9087C66.9133 52.9087 66.3191 53.471 66.3191 54.1646C66.3191 54.8582 66.9133 55.4205 67.6464 55.4205Z" fill="#F8A300"/>
<path d="M66.4649 62.2137C67.5004 63.1924 68.0838 64.4331 68.0838 65.9633C68.0838 68.8858 65.5898 71.2431 62.4977 71.2431H40.4448C43.391 67.3556 46.7748 64.0196 50.144 60.8213H62.4977C63.9708 60.6835 65.4439 61.2487 66.4649 62.2137Z" fill="white"/>
<path d="M60.2955 0.785889C61.0248 0.785889 61.6228 1.35173 61.6228 2.04179C61.6228 2.73184 61.0248 3.29769 60.2955 3.29769C59.5663 3.29769 58.9683 2.73184 58.9683 2.04179C58.9683 1.35173 59.5663 0.785889 60.2955 0.785889Z" fill="#F8A300"/>
<path d="M50.144 37.6205C47.9416 40.543 44.412 42.3489 40.4448 42.3489C36.4776 42.3489 32.8021 40.4051 30.7456 37.6205C32.948 34.698 36.4776 32.8921 40.4448 32.8921C44.412 32.8921 48.0874 34.698 50.144 37.6205Z" fill="white"/>
<path d="M40.4451 24.1384C42.9391 24.1384 45.0102 26.0822 45.0102 28.4533C45.0102 30.8106 42.9537 32.7681 40.4451 32.7681C37.951 32.7681 35.8799 30.8244 35.8799 28.4533C35.8799 26.0822 37.951 24.1384 40.4451 24.1384Z" fill="white"/>
<path d="M40.4449 71.1192H18.3921C16.9189 71.1192 15.4458 70.5678 14.4249 69.589C13.3893 68.6102 12.8059 67.3696 12.8059 65.8394C12.8059 62.9169 15.3 60.5596 18.2462 60.5596H30.5999C34.1149 63.8819 37.4987 67.2179 40.4449 71.1192Z" fill="white"/>
<path d="M9.71373 71.9463C10.443 71.9463 11.041 72.5121 11.041 73.2022C11.041 73.8922 10.443 74.4581 9.71373 74.4581C8.98447 74.4581 8.38647 73.8922 8.38647 73.2022C8.38647 72.5121 8.98447 71.9463 9.71373 71.9463Z" fill="#F8A300"/>
<path d="M4.56513 51.9299C6.62164 51.9299 8.2406 53.4601 8.2406 55.4039C8.2406 57.3476 6.62164 58.8778 4.56513 58.8778C2.50861 58.8778 0.889648 57.3476 0.889648 55.4039C0.889648 53.4601 2.65446 51.9299 4.56513 51.9299Z" fill="white"/>
<path d="M6.03844 3.43286C6.7677 3.43286 7.3657 3.99871 7.3657 4.68876C7.3657 5.37882 6.7677 5.94466 6.03844 5.94466C5.30918 5.94466 4.71118 5.37882 4.71118 4.68876C4.71118 3.98491 5.30918 3.43286 6.03844 3.43286Z" fill="#F8A300"/>
<path d="M1.47325 38.1721C2.20251 38.1721 2.80051 38.738 2.80051 39.428C2.80051 40.1181 2.20251 40.6839 1.47325 40.6839C0.74399 40.6839 0.145996 40.1181 0.145996 39.428C0.145996 38.738 0.74399 38.1721 1.47325 38.1721Z" fill="#F8A300"/>
<path d="M40.4446 49.8484C29.4182 49.8484 20.4482 41.3704 20.4482 30.9486C20.4482 20.5269 29.4182 12.0488 40.4446 12.0488C51.471 12.0488 60.4409 20.5269 60.4409 30.9486C60.4409 41.3704 51.471 49.8484 40.4446 49.8484ZM40.4446 13.7169C30.4391 13.7169 22.2131 21.3678 22.2131 30.9486C22.3589 40.4054 30.4537 48.0425 40.4446 48.0425C50.4501 48.0425 58.6761 40.4054 58.6761 30.8108C58.6761 21.4918 50.4355 13.7169 40.4446 13.7169Z" fill="#F8A300"/>
<path d="M40.445 71.946H18.3921C16.6273 71.946 15.0083 71.2568 13.8269 70.1402C12.6455 69.0235 11.9163 67.4934 11.9163 65.8253C11.9163 62.4892 14.8625 59.7046 18.3921 59.7046H30.7458C31.1834 59.7046 31.6209 60.1182 31.6209 60.5455C31.6209 60.9591 31.1834 61.3726 30.7458 61.3726H18.3921C15.898 61.3726 13.8269 63.3164 13.8269 65.6875C13.8269 66.8041 14.2645 67.9069 15.1542 68.7478C16.0293 69.5887 17.2107 70.0023 18.3921 70.0023H40.445C40.8825 70.0023 41.3347 70.4159 41.3347 70.8432C41.3201 71.2568 41.0284 71.946 40.445 71.946Z" fill="#F8A300"/>
<path d="M62.4978 71.9462H40.4449C40.0074 71.9462 39.5698 71.5326 39.5698 71.1053C39.5698 70.6917 40.0074 70.2782 40.4449 70.2782H62.4978C64.9919 70.2782 67.063 68.3344 67.063 65.9633C67.063 64.8467 66.6254 63.7439 65.7357 62.903C64.8606 62.0759 63.6792 61.6485 62.4978 61.6485H50.1441C49.7066 61.6485 49.2544 61.2349 49.2544 60.8076C49.2544 60.394 49.692 59.9805 50.1441 59.9805H62.4978C64.2626 59.9805 65.8816 60.6697 67.063 61.7864C68.2444 62.903 68.9736 64.4332 68.9736 66.1012C68.9736 69.1616 66.0274 71.9462 62.4978 71.9462Z" fill="#F8A300"/>
<path d="M40.4448 71.9461C40.1531 71.9461 39.8614 71.8083 39.7155 71.5326C36.7693 67.6451 33.3855 64.309 30.1622 61.2486C29.2871 60.4215 28.5432 59.7185 27.6681 58.8913C18.9899 50.8269 10.9097 43.1897 10.9097 30.9483C10.9097 15.5224 24.1385 3.01904 40.4739 3.01904C56.7948 3.01904 70.1841 15.5224 70.1841 30.9483C70.1841 43.176 62.1038 50.8269 53.4256 58.8913C52.5505 59.7185 51.8067 60.4215 50.9315 61.2486C47.6936 64.309 44.3098 67.6451 41.3782 71.5326C41.0282 71.8083 40.7365 71.9461 40.4448 71.9461ZM31.329 59.9942C34.4211 62.9167 37.4985 65.9633 40.4448 69.5888C43.391 65.977 46.4685 62.9167 49.5605 59.9942C50.4356 59.1533 51.1795 58.464 52.0546 57.6369C60.7328 49.4345 68.2296 42.3488 68.2296 30.9483C68.2296 16.4874 55.7301 4.68708 40.4302 4.68708C25.1303 4.68708 12.6307 16.5012 12.6307 30.9483C12.6307 42.4867 20.1275 49.4345 28.8057 57.6369C29.71 58.464 30.5851 59.1533 31.329 59.9942Z" fill="#F8A300"/>
<path d="M50.1438 38.4478C49.8521 38.4478 49.5604 38.3099 49.4146 38.0342C47.3581 35.2496 43.9743 33.5815 40.4447 33.5815C36.915 33.5815 33.5313 35.2496 31.4748 38.0342C31.183 38.4478 30.5996 38.4478 30.1475 38.1721C29.7099 37.8964 29.7099 37.3449 30.0016 36.9176C32.3499 33.7194 36.3316 31.7756 40.4447 31.7756C44.5577 31.7756 48.5395 33.7194 50.8877 36.9176C51.1794 37.3312 51.0335 37.8964 50.7418 38.1721C50.596 38.4478 50.4355 38.4478 50.1438 38.4478Z" fill="#F8A300"/>
<path d="M40.4448 33.7195C37.3527 33.7195 34.8586 31.3622 34.8586 28.4397C34.8586 25.5172 37.3527 23.1599 40.4448 23.1599C43.5369 23.1599 46.0309 25.5172 46.0309 28.4397C46.0309 31.3622 43.5369 33.7195 40.4448 33.7195ZM40.4448 24.9658C38.3883 24.9658 36.7693 26.496 36.7693 28.4397C36.7693 30.3835 38.3883 31.9137 40.4448 31.9137C42.5013 31.9137 44.1203 30.3835 44.1203 28.4397C44.1203 26.6338 42.5013 24.9658 40.4448 24.9658Z" fill="#F8A300"/>
<path d="M40.4448 43.3141C36.3318 43.3141 32.35 41.3703 30.0018 38.1721C28.5287 36.0905 27.6536 33.7194 27.6536 31.2242C27.6536 24.5521 33.3856 18.9966 40.5907 18.9966C47.7958 18.9966 53.5278 24.4142 53.5278 31.2242C53.5278 33.7194 52.6527 36.2283 51.1795 38.1721C48.525 41.3703 44.5578 43.3141 40.4448 43.3141ZM31.4749 37.0555C33.5314 39.8401 36.9152 41.5082 40.4448 41.5082C43.9744 41.5082 47.3582 39.8401 49.4147 37.0555C50.742 35.2496 51.4713 33.168 51.4713 31.0864C51.4713 25.393 46.4685 20.6646 40.4448 20.6646C34.4211 20.6646 29.4184 25.393 29.4184 31.0864C29.4184 33.3058 30.1476 35.3874 31.4749 37.0555Z" fill="#F8A300"/>
<path d="M74.4138 12.8758C71.3217 12.8758 68.8276 10.5185 68.8276 7.59598C68.8276 4.67347 71.3217 2.31616 74.4138 2.31616C77.5059 2.31616 79.9999 4.67347 79.9999 7.59598C79.9999 10.5185 77.5059 12.8758 74.4138 12.8758ZM74.4138 4.12205C72.3573 4.12205 70.7383 5.65223 70.7383 7.59598C70.7383 9.53972 72.3573 11.0699 74.4138 11.0699C76.4703 11.0699 78.0893 9.53972 78.0893 7.59598C78.0893 5.65223 76.4703 4.12205 74.4138 4.12205Z" fill="#F8A300"/>
<path d="M4.56518 59.7185C2.0711 59.7185 0 57.7748 0 55.4037C0 53.0464 2.05652 51.0889 4.56518 51.0889C7.05925 51.0889 9.13035 53.0326 9.13035 55.4037C9.26162 57.7748 7.20511 59.7185 4.56518 59.7185ZM4.56518 52.7707C3.09207 52.7707 1.76481 53.8873 1.76481 55.4175C1.76481 56.9477 2.94622 58.0643 4.56518 58.0643C6.03829 58.0643 7.36554 56.9477 7.36554 55.4175C7.35096 53.8735 6.18414 52.7707 4.56518 52.7707Z" fill="#F8A300"/>
</svg>
