<svg width="70" height="66" viewBox="0 0 70 66" fill="none" xmlns="http://www.w3.org/2000/svg">
<path d="M1.4051 21.7562C1.28218 21.7562 1.18911 21.7276 1.11139 21.6844C0.953295 21.5964 0.856116 21.4323 0.772306 21.272C0.645747 21.0299 0.772307 20.6667 1.02543 20.5336C1.27854 20.4125 1.65822 20.5336 1.79744 20.7757L1.924 21.0178C2.01164 21.1854 1.9779 21.4111 1.8648 21.5783C1.76698 21.7229 1.4051 21.7562 1.4051 21.7562Z" fill="#F8A300"/>
<path d="M1.1519 21.5033C0.949979 21.5033 0.828597 21.4262 0.723504 21.2721C0.6663 21.1882 0.603254 21.1054 0.562383 21.0125C0.525826 20.9294 0.5022 20.8339 0.462137 20.7541C0.427431 20.685 0.39255 20.612 0.39255 20.5347V20.4136C0.39255 20.334 0.366216 20.256 0.35996 20.1767C0.341809 19.9467 0.557018 19.6672 0.772227 19.5539C0.990652 19.4495 1.30332 19.6155 1.47439 19.8185C1.5255 19.8792 1.54424 19.9589 1.54424 20.0382V20.1593V20.2804C1.54424 20.5356 1.76715 20.7768 1.69665 21.022C1.68099 21.0765 1.65791 21.1294 1.62835 21.1781C1.52725 21.3449 1.34687 21.5033 1.1519 21.5033Z" fill="#F8A300"/>
<path d="M1.35562 19.5572C1.17701 20.0534 0.25293 20.0825 0.25293 19.5551C0.25293 19.4341 0.25293 19.4341 0.25293 19.313C0.25293 19.0709 0.379489 18.7078 0.759167 18.7078C1.01229 18.7078 1.39196 18.8288 1.39196 19.192V19.313C1.39505 19.4016 1.38233 19.483 1.35562 19.5572Z" fill="#F8A300"/>
<path d="M0.950356 19.2663C0.764787 19.4177 0.485238 19.4586 0.304771 19.3012C0.198786 19.2087 0.126465 19.0793 0.126465 18.9499V18.8289C0.126465 18.5868 0.379583 18.2236 0.632702 18.2236C0.885821 18.2236 1.2655 18.4657 1.2655 18.7078C1.2655 18.7874 1.24814 18.8665 1.21016 18.9365C1.14696 19.053 1.06923 19.1694 0.950356 19.2663Z" fill="#F8A300"/>
<path d="M0.632702 19.1922C0.379583 19.1922 0.126465 18.9501 0.126465 18.708V18.5869C0.126465 18.3448 0.379583 17.9817 0.632702 17.9817C0.885821 17.9817 1.2655 18.2238 1.2655 18.4659C1.2655 18.5461 1.25478 18.6267 1.22221 18.7C1.09279 18.9912 0.857744 19.1922 0.632702 19.1922Z" fill="#F8A300"/>
<path d="M59.7736 44.5764C60.6722 44.5764 61.4316 45.3144 61.4316 46.1613C61.4316 47.0203 60.6596 47.7462 59.7736 47.7462C59.6693 47.7462 59.5668 47.7363 59.4671 47.7173C58.0091 47.4404 58.0425 44.8588 59.5039 44.5999C59.591 44.5845 59.681 44.5764 59.7736 44.5764Z" fill="white"/>
<path d="M67.6972 42.6172C68.6897 42.6172 69.4943 43.4218 69.4943 44.4143V48.1546C69.4943 49.0772 68.7464 49.8252 67.8238 49.8252H59.2683C58.2432 49.8252 57.3573 49.4623 56.5853 48.7246C55.8133 47.9869 55.4336 47.1403 55.4336 46.1607C55.4336 44.2136 57.0915 42.6172 59.1418 42.6172H67.6972ZM61.4452 46.1607C61.4452 45.302 60.6732 44.5764 59.7872 44.5764C58.8887 44.5764 58.1293 45.3141 58.1293 46.1607C58.1293 47.0194 58.9013 47.745 59.7872 47.745C60.6732 47.745 61.4452 47.0194 61.4452 46.1607Z" fill="white"/>
<path d="M45.979 4.90842C47.3597 6.15597 47.3902 8.31355 46.0453 9.59961L30.5448 24.4219C30.2079 24.7441 29.7597 24.9239 29.2935 24.9239C27.6609 24.9239 26.8623 22.9331 28.0423 21.8048L45.7197 4.90228C45.7929 4.83226 45.9091 4.83501 45.979 4.90842Z" fill="white"/>
<path d="M43.5619 2.58627C44.8166 3.78528 44.8163 5.78913 43.5612 6.98777L25.4256 24.3077C25.0115 24.7031 24.461 24.9237 23.8884 24.9237C23.3157 24.9237 22.7649 24.7029 22.3508 24.3072L21.5912 23.5813C21.5054 23.4993 21.4778 23.4729 21.4689 23.4268C21.4583 23.3719 21.4418 23.3176 21.4014 23.279C21.3609 23.2404 21.3401 23.1856 21.3204 23.1333C21.2856 23.0407 21.2115 22.9482 21.2115 22.8557C21.2115 22.8557 21.2022 22.6952 21.1899 22.6158C21.1116 22.1077 21.2113 21.5978 21.4893 21.1718C21.5435 21.0886 21.646 20.9772 21.7178 20.9086L41.0054 2.47743C41.6382 1.84854 42.7899 1.84854 43.5619 2.58627Z" fill="white"/>
<path d="M21.5786 23.582C21.5786 23.582 21.5786 23.582 21.5786 23.582C22.0866 24.0675 21.743 24.9244 21.0403 24.9244H19.0232C18.6162 24.9244 18.2247 24.7682 17.9296 24.4879L16.339 22.9773C15.567 22.2396 15.567 21.1511 16.339 20.4134L21.3255 15.6484L25.8057 11.3792L35.6393 1.98225C36.4113 1.24452 37.5504 1.24452 38.3224 1.98225C39.2245 2.84434 39.2218 4.2859 38.3164 5.14456L21.7056 20.8976C21.631 20.9684 21.5264 21.068 21.452 21.139C20.9829 21.5873 20.8398 22.2538 21.0228 22.734C21.0511 22.8083 21.0723 22.8858 21.0723 22.9652C21.0723 23.0549 21.1419 23.1446 21.1779 23.2343C21.2009 23.2916 21.2242 23.3522 21.2688 23.3948C21.3055 23.4299 21.3539 23.4495 21.4013 23.4678C21.4981 23.5051 21.5786 23.582 21.5786 23.582Z" fill="white"/>
<path d="M57.0911 15.6475C57.4707 16.3852 57.3442 17.2318 56.7114 17.8486L51.2391 23.0778C49.9995 24.2625 48.3508 24.9235 46.6361 24.9235C40.6271 24.9235 37.6887 17.5954 42.0331 13.4439L44.1947 11.3784C46.5526 9.12518 50.2656 9.12517 52.6235 11.3783L56.0675 14.6694C56.4102 14.9969 56.8713 15.2275 57.0911 15.6475Z" fill="white"/>
<path d="M52.6234 25.4079H49.3075C49.0544 25.4079 48.8013 25.1659 48.8013 24.9239C48.8013 24.6819 49.0544 24.4399 49.3075 24.4399H52.6234C52.8765 24.4399 53.1296 24.6819 53.1296 24.9239C53.1423 25.1659 53.003 25.4079 52.6234 25.4079Z" fill="#F8A300"/>
<path d="M18.389 25.4091H7.65672C6.12535 25.4091 4.59398 24.9252 3.31573 24.1871C2.68293 23.8242 2.03748 23.2072 1.53124 22.6022C1.49045 22.5632 1.45294 22.5211 1.41767 22.4768C1.04601 22.0099 0.588398 21.2026 1.15156 21.0052C1.40468 20.8842 1.78436 20.8842 1.92358 21.2472C2.1998 21.7753 2.59914 22.2388 3.03649 22.6436C3.30856 22.8955 3.61813 23.1314 3.96118 23.3281C4.98631 24.0662 6.26456 24.4291 7.66937 24.4291H18.4016C18.6547 24.4291 18.9078 24.6711 18.9078 24.9131C18.9078 25.1671 18.6421 25.4091 18.389 25.4091Z" fill="#F8A300"/>
<path d="M67.6966 65.3296H6.77093C3.06274 65.3296 0 62.4028 0 58.8593V18.0907C0 17.8488 0.253118 17.6069 0.506237 17.6069C0.759356 17.6069 1.13903 17.8488 1.13903 18.0907C1.13903 18.2116 1.13903 18.2116 1.13903 18.3326V58.9802C1.13903 61.907 3.69553 64.3499 6.75827 64.3499H52.5446C60.6333 64.3499 67.1904 57.7928 67.1904 49.7042C67.1904 49.4623 67.4435 49.2204 67.6966 49.2204C67.9497 49.2204 68.2029 49.4623 68.2029 49.7042V63.7433C68.2029 64.3845 68.3378 65.3296 67.6966 65.3296Z" fill="#F8A300"/>
<path d="M67.6967 43.113C67.4436 43.113 67.1905 42.8711 67.1905 42.6292V28.3436C67.1905 26.722 65.8759 25.4075 64.2543 25.4075C64.0012 25.4075 63.748 25.1656 63.748 24.9237C63.748 24.6818 64.0012 24.4399 64.2543 24.4399H67.8359C68.089 24.4399 68.3421 24.6818 68.3421 24.9237V42.6292C68.3421 42.8711 68.0764 43.113 67.6967 43.113Z" fill="#F8A300"/>
<path d="M64.2542 25.4072H52.7626C52.5095 25.4072 52.2563 25.1654 52.2563 24.9235C52.2563 24.6816 52.5095 24.4397 52.7626 24.4397H57.4591C60.9323 24.4397 63.7479 21.6241 63.7479 18.1509C63.7479 14.6777 60.9323 11.862 57.4591 11.862H52.8891C52.636 11.862 52.3829 11.6202 52.3829 11.3783C52.3829 11.1364 52.636 10.8945 52.8891 10.8945H64.3807C64.6339 10.8945 64.887 11.1364 64.887 11.3783V24.0913C64.887 24.6379 64.8008 25.4072 64.2542 25.4072Z" fill="#F8A300"/>
<path d="M3.69606 24.3191C3.5695 24.3191 3.44294 24.3191 3.31638 24.1981C2.68359 23.7144 2.03813 23.2185 1.5319 22.6138C1.37013 22.4593 1.26006 22.2553 1.1356 22.0619C1.00112 21.8529 0.772541 21.6409 0.77254 21.3923C0.77254 21.3923 0.772538 21.3301 0.725831 21.2949C0.688459 21.2668 0.645981 21.2335 0.645981 21.1867C0.645981 21.1636 0.636056 21.1418 0.621514 21.1238C0.531137 21.012 0.514002 20.8302 0.430879 20.7114C0.409349 20.6807 0.395227 20.6439 0.378945 20.61C0.376632 20.6052 0.373935 20.6004 0.370789 20.5956C0.333899 20.54 0.266303 20.4916 0.266303 20.4248V20.3039C0.266303 20.183 0.139743 19.9411 0.139743 19.8201V19.6992C0.139743 19.6059 0.139743 19.4405 0.0815834 19.3143C0.0492568 19.2442 0.0131836 19.1717 0.0131836 19.0945V18.9736V18.8526V18.7317C0.0131836 18.6107 0.0131836 18.6107 0.0131836 18.4898C0.0131836 14.4625 3.46825 11.1609 7.68268 11.1609H25.6921C25.9452 11.1609 26.1983 11.4028 26.1983 11.6446C26.1983 11.8865 25.9452 12.1284 25.6921 12.1284H7.65737C4.07574 12.1284 1.13956 14.9342 1.13956 18.3568C1.13956 18.4777 1.13956 18.4777 1.13956 18.5987V18.7196V18.8405V18.9615V19.0824C1.13956 19.1836 1.13956 19.2849 1.21381 19.4571C1.24526 19.53 1.26612 19.6077 1.26612 19.6871C1.26612 19.808 1.39268 19.929 1.39268 20.1709V20.2918V20.4127V20.5337C1.39268 20.6546 1.51924 20.7756 1.51924 20.8965C1.51924 20.8965 1.51924 20.8965 1.51924 20.8965C1.51924 20.8965 1.51924 20.8965 1.51924 21.0174V21.1384C1.51924 21.3233 1.68779 21.4656 1.79854 21.6137C1.85236 21.6857 1.91015 21.7581 1.96533 21.8311C2.10281 22.0129 2.21986 22.2113 2.37637 22.3771C2.69466 22.7141 3.06274 22.9994 3.36101 23.2745C3.40584 23.3158 3.43487 23.3282 3.49052 23.3532C3.54958 23.3796 3.58332 23.4857 3.6301 23.5304L3.68341 23.5813C3.78905 23.6823 3.8506 23.7832 3.87726 23.8851C3.9145 24.0273 3.84309 24.3191 3.69606 24.3191Z" fill="#F8A300"/>
<path d="M69.4937 50.3086H59.2677C58.1161 50.3086 57.0909 49.8249 56.205 49.0871C55.433 48.3494 54.9268 47.261 54.9268 46.1604C54.9268 43.8384 56.8378 42.0122 59.2677 42.0122H69.4937C69.7469 42.0122 70 42.2541 70 42.496V49.7039C70 50.0668 69.7469 50.3086 69.4937 50.3086ZM59.2677 43.1128C57.4833 43.1128 56.0785 44.4552 56.0785 46.1604C56.0785 47.0191 56.4581 47.7447 56.977 48.3615C57.6098 48.9662 58.3818 49.2202 59.2804 49.2202H65.8072C67.4938 49.2202 68.8609 47.853 68.8609 46.1665C68.8609 44.4799 67.4938 43.1128 65.8072 43.1128H59.2677Z" fill="#F8A300"/>
<path d="M59.774 48.2425C58.4957 48.2425 57.5972 47.2625 57.5972 46.1615C57.5972 45.0605 58.6223 44.0806 59.774 44.0806C61.0522 44.0806 61.9508 45.0605 61.9508 46.1615C61.9508 47.2625 61.0522 48.2425 59.774 48.2425ZM59.774 45.1936C59.1412 45.1936 58.7489 45.6776 58.7489 46.1736C58.7489 46.6576 59.2551 47.1536 59.774 47.1536C60.4068 47.1536 60.7991 46.6697 60.7991 46.1736C60.7991 45.6776 60.4194 45.1936 59.774 45.1936Z" fill="#F8A300"/>
<path d="M6.89735 65.3295C6.64423 65.3295 6.39111 65.0876 6.39111 64.8457V29.0719C6.39111 28.83 6.64423 28.5881 6.89735 28.5881C7.15047 28.5881 7.40359 28.83 7.40359 29.0719V63.9781C7.40359 64.5408 7.45999 65.3295 6.89735 65.3295Z" fill="#F8A300"/>
<path d="M67.6965 59.8396H6.89735C6.64423 59.8396 6.39111 59.5976 6.39111 59.3556C6.39111 59.1136 6.64423 58.8716 6.89735 58.8716H67.6965C67.9496 58.8716 68.2027 59.1136 68.2027 59.3556C68.2154 59.5976 68.0762 59.8396 67.6965 59.8396Z" fill="#F8A300"/>
<path d="M64.2538 16.1321H57.3563C57.1032 16.1321 56.8501 15.8901 56.8501 15.6481C56.8501 15.4061 57.1032 15.1641 57.3563 15.1641H64.2538C64.5069 15.1641 64.7601 15.4061 64.7601 15.6481C64.7601 15.8901 64.5069 16.1321 64.2538 16.1321Z" fill="#F8A300"/>
<path d="M21.3253 16.1321H7.27723C7.02411 16.1321 6.771 15.8901 6.771 15.6481C6.771 15.4061 7.02411 15.1641 7.27723 15.1641H21.3253C21.5784 15.1641 21.8316 15.4061 21.8316 15.6481C21.8442 15.8901 21.5784 16.1321 21.3253 16.1321Z" fill="#F8A300"/>
<path d="M21.4517 23.9466C21.3636 23.9466 21.2144 23.888 21.0892 23.8116C20.9912 23.7518 20.934 23.6432 20.8571 23.558C20.8117 23.5076 20.8002 23.4313 20.7782 23.3671C20.6981 23.1332 20.7393 22.8397 21.072 22.7229C21.3148 22.6066 21.6742 22.6019 21.8259 22.9228C21.8389 22.9503 21.8408 22.952 21.8456 22.982C21.8602 23.0733 22.0006 23.1371 22.0256 23.2261C22.0742 23.3989 22.0637 23.5948 21.9624 23.7261C21.8993 23.8079 21.8102 23.8714 21.7146 23.9105C21.6263 23.9466 21.5362 23.9466 21.4517 23.9466Z" fill="#F8A300"/>
<path d="M21.1991 23.4673C21.1991 23.4639 21.1964 23.4612 21.193 23.4612C20.9419 23.4593 20.6928 23.3382 20.6928 23.0981C20.6928 23.0186 20.6664 22.9406 20.6602 22.8613C20.6525 22.7635 20.688 22.6593 20.7479 22.5723C20.8958 22.3576 21.2382 22.2811 21.4663 22.4071C21.7158 22.5449 21.8247 22.8965 21.7014 23.1533C21.6389 23.2834 21.5195 23.4005 21.3431 23.467C21.3316 23.4713 21.3194 23.4733 21.3072 23.4733H21.2051C21.2018 23.4733 21.1991 23.4706 21.1991 23.4673Z" fill="#F8A300"/>
<path d="M21.3076 23.3502C21.2702 23.347 21.1077 23.3364 21.0706 23.3302C20.8764 23.2976 20.7092 23.1895 20.6937 23.0058C20.6922 22.9873 20.6898 22.9687 20.6848 22.9508C20.4448 22.1011 20.6979 21.2654 21.1988 20.6549C21.3513 20.5091 21.5496 20.4512 21.7137 20.481C21.923 20.519 22.1005 20.7493 22.1481 20.9566C22.2279 21.3041 21.839 21.5381 21.7347 21.8791C21.6768 22.0685 21.6539 22.263 21.6768 22.4393C21.6924 22.5585 21.76 22.6702 21.75 22.79C21.7322 23.0031 21.5413 23.2414 21.3476 23.3477C21.3413 23.3511 21.3148 23.3508 21.3076 23.3502Z" fill="#F8A300"/>
<path d="M21.5788 21.5018C21.4522 21.5018 21.3257 21.5018 21.1991 21.3808C20.7852 20.9853 21.4092 20.4425 21.8233 20.0471L40.4868 2.22406C40.993 1.7403 41.6385 1.48633 42.2712 1.48633C42.904 1.48633 43.5495 1.72821 44.0557 2.22406L46.3591 4.42515C46.4744 4.53532 46.5372 4.67057 46.5474 4.79778C46.5707 5.08633 46.2253 5.34119 45.9359 5.34426C45.639 5.34741 45.4781 5.05876 45.2635 4.85368L43.2837 2.96179C43.0306 2.71991 42.6509 2.59897 42.3852 2.59897C42.0055 2.59897 41.7524 2.71991 41.4866 2.96179L22.0977 21.3808C21.9711 21.5018 21.8446 21.5018 21.5788 21.5018Z" fill="#F8A300"/>
<path d="M49.3071 25.4076H30.0194C29.7663 25.4076 29.5132 25.1657 29.5132 24.9238C29.5132 24.6819 29.7663 24.4401 30.0194 24.4401H38.9884C45.4488 24.4401 51.6604 21.9493 56.3311 17.4861C56.6038 17.2255 56.7459 16.8341 56.7106 16.4549C56.6831 16.1585 56.5463 15.8655 56.3311 15.6599L45.5989 5.40424C45.4836 5.29408 45.4208 5.15883 45.4105 5.03162C45.3872 4.74307 45.7326 4.48821 46.0221 4.48514C46.319 4.48199 46.4799 4.77064 46.6945 4.97572L57.1031 14.9222C57.451 15.2546 57.6304 15.7431 57.7312 16.2136C57.8978 16.9913 57.6884 17.7733 57.1031 18.3326L49.6994 25.2866C49.5602 25.4076 49.4336 25.4076 49.3071 25.4076Z" fill="#F8A300"/>
<path d="M24.7805 25.4079H22.996C22.7429 25.4079 22.4897 25.1659 22.4897 24.9239C22.4897 24.6819 22.7429 24.4399 22.996 24.4399H24.7805C25.0336 24.4399 25.2867 24.6819 25.2867 24.9239C25.2867 25.1659 25.0336 25.4079 24.7805 25.4079Z" fill="#F8A300"/>
<path d="M30.0199 25.4075H24.7803C24.5272 25.4075 24.4007 25.2866 24.2741 25.0447C24.1475 24.8028 24.2741 24.5609 24.4007 24.44L45.4728 4.42457C45.8967 4.01954 46.46 4.63022 46.8839 5.03525L48.9279 6.98849C49.3419 7.3841 48.7171 7.92597 48.3015 8.31988L30.7123 24.9902C30.5126 25.1794 30.2949 25.4075 30.0199 25.4075ZM28.4956 22.1126C27.6603 22.9103 28.2249 24.3191 29.3799 24.3191C29.7094 24.3191 30.0263 24.192 30.2645 23.9644L46.7766 8.18556C47.3153 7.67077 47.3005 6.80595 46.7446 6.30985C46.2479 5.86668 45.4941 5.87943 45.0127 6.33914L28.4956 22.1126Z" fill="#F8A300"/>
<path d="M22.9955 25.4075H18.4014C18.2749 25.4075 18.1483 25.4075 18.0217 25.2865L15.9715 23.3394C14.9464 22.3598 14.9464 20.8964 15.9715 19.9168L25.2989 11.0036L35.1326 1.60663C35.6388 1.12287 36.2843 0.868896 36.9171 0.868896C37.5499 0.868896 38.1953 1.11078 38.7015 1.60663L40.3595 3.19093C40.7734 3.58648 40.1495 4.12934 39.7355 4.5249L22.5053 20.9899C22.2338 21.2495 21.9499 21.5222 21.8447 21.8828C21.7908 22.0674 21.7773 22.2644 21.8175 22.4836C21.832 22.5625 21.8438 22.6423 21.8438 22.7226C21.8438 22.8435 21.9704 22.8436 21.9704 22.9645C21.9704 22.9645 21.9704 22.9645 21.9704 22.9645C21.9704 22.9645 21.9704 22.973 21.9728 22.9855C21.9936 23.0959 22.1423 23.1287 22.2235 23.2064L23.6283 24.5488C23.9406 24.8472 23.5662 25.3242 23.1401 25.3951C23.0919 25.4031 23.0437 25.4075 22.9955 25.4075ZM18.3476 24.0359C18.5364 24.2175 18.7882 24.319 19.0503 24.319H21.0529C21.2428 24.319 21.3357 24.0874 21.1984 23.9562C21.0718 23.8353 21.0718 23.8353 20.9453 23.7143C20.9453 23.7143 20.9453 23.7143 20.9453 23.7143C20.9453 23.7143 20.9285 23.6983 20.9072 23.6721C20.8175 23.5619 20.758 23.4169 20.6921 23.291C20.6724 23.2532 20.6526 23.2154 20.6251 23.1776C20.5911 23.1309 20.5656 23.0769 20.5656 23.0192C20.5656 22.999 20.5626 22.9787 20.5571 22.9592C20.3276 22.1439 20.5523 21.3416 21.0143 20.7391C21.0507 20.6917 21.0598 20.6656 21.0851 20.6113C21.1133 20.551 21.2252 20.52 21.2734 20.4741L37.9723 4.51665C38.5764 3.93936 38.5764 2.97463 37.9723 2.39735C37.8601 2.29014 37.733 2.19829 37.5901 2.13777C37.3993 2.05695 37.1883 1.99363 36.9044 1.99363C36.5247 1.99363 36.2716 2.11457 36.0058 2.35645L26.0583 11.7413L16.7308 20.6545C16.2246 21.1383 16.2246 21.997 16.7308 22.4807L18.3476 24.0359Z" fill="#F8A300"/>
<path d="M67.6965 55.9333H16.4779C16.2248 55.9333 15.9717 55.6913 15.9717 55.4493C15.9717 55.2073 16.2248 54.9653 16.4779 54.9653H67.6965C67.9496 54.9653 68.2027 55.2073 68.2027 55.4493C68.2154 55.6792 68.0762 55.9333 67.6965 55.9333Z" fill="#F8A300"/>
</svg>
