<svg width="44" height="44" viewBox="0 0 44 44" fill="none" xmlns="http://www.w3.org/2000/svg">
<rect width="44" height="44" rx="22" fill="#6B4EFF"/>
<path d="M14.5053 24.3477L13.9158 24.4539C13.4687 22.707 13.0212 21.2164 12.5732 19.9822C12.4374 20.3979 12.2982 20.9796 12.1556 21.7273C12.0178 22.4693 11.9195 22.9517 11.8608 23.1743C11.8504 23.1752 11.8323 23.1794 11.8067 23.1868C11.7859 23.1886 11.7676 23.1902 11.752 23.1916C11.679 23.198 11.5584 23.2008 11.3901 23.2C11.2219 23.1993 11.1143 23.201 11.0674 23.2051C11.0487 23.0566 10.8709 22.5726 10.534 21.7531C10.1966 20.9285 9.99119 20.4003 9.91768 20.1687C9.89909 21.009 9.67115 22.5562 9.23386 24.8104L8.74477 24.8068C8.76713 24.2405 8.86734 23.3438 9.04541 22.1167C9.22347 20.8897 9.30884 19.9451 9.30152 19.2831C9.39444 19.2646 9.46958 19.2528 9.52694 19.2478C9.57908 19.2432 9.77386 19.2468 10.1113 19.2586C10.1852 19.2625 10.3106 19.487 10.4875 19.9323C10.6692 20.3719 10.855 20.8578 11.0451 21.3899C11.2351 21.922 11.3528 22.2352 11.3981 22.3296C11.512 21.9624 11.6347 21.3718 11.766 20.5578C11.9026 19.7433 12.0028 19.2246 12.0667 19.0016C12.1506 18.9994 12.416 18.9994 12.8629 19.0016C13.0454 19.5084 13.2264 20.0569 13.4059 20.6468C13.5906 21.2363 13.7906 21.9073 14.0058 22.6598C14.2262 23.4119 14.3927 23.9745 14.5053 24.3477Z" fill="white"/>
<path d="M14.8065 20.9665L14.6145 20.5873C14.738 20.4419 14.9006 20.3215 15.1022 20.2261C15.3033 20.1257 15.5055 20.0665 15.7089 20.0486C16.5901 19.9713 17.0985 20.6825 17.2342 22.1823C17.2527 22.3878 17.2671 22.692 17.2773 23.0949C17.2927 23.4974 17.3094 23.7988 17.3275 23.9991C17.3002 24.162 17.2266 24.2487 17.1067 24.2592C17.0128 24.2674 16.9226 24.2288 16.836 24.1432C16.7495 24.0576 16.7011 23.9583 16.6908 23.8453C16.6876 23.8093 16.6879 23.7834 16.6917 23.7676C16.3963 24.1041 16.0661 24.2884 15.7011 24.3204C15.4248 24.3447 15.1735 24.2684 14.9473 24.0915C14.7258 23.909 14.6023 23.6766 14.5767 23.3941C14.5335 22.9164 14.6822 22.4685 15.0228 22.0503C15.3686 21.6316 15.7813 21.4013 16.261 21.3592C16.2819 21.3573 16.303 21.3581 16.3243 21.3614C16.3451 21.3596 16.3688 21.3601 16.3954 21.3629C16.4271 21.3653 16.4508 21.3658 16.4664 21.3644C16.3704 20.7671 16.1007 20.488 15.6575 20.5269C15.3968 20.5497 15.1132 20.6963 14.8065 20.9665ZM16.6592 23.2346C16.6372 22.8741 16.6177 22.6014 16.601 22.4165C16.5871 22.2624 16.5624 22.0472 16.5268 21.7707L16.4643 21.7762C16.0945 21.8138 15.7679 21.9797 15.4845 22.2738C15.2062 22.5674 15.0843 22.9043 15.1186 23.2844C15.1335 23.4487 15.1949 23.5754 15.3028 23.6643C15.4159 23.7527 15.5454 23.7905 15.6914 23.7777C15.9209 23.7576 16.2435 23.5765 16.6592 23.2346Z" fill="white"/>
<path d="M20.7628 19.97L21.2905 19.8771C21.6139 20.5477 21.9967 21.8161 22.4388 23.6825C22.352 23.7108 22.2643 23.7289 22.1756 23.7366C22.0974 23.7435 22.005 23.7387 21.8984 23.7221C21.7999 23.4461 21.6662 22.9556 21.4973 22.2508C21.3337 21.5456 21.1993 21.0474 21.0941 20.7564C20.8758 21.1897 20.5999 21.9749 20.2666 23.1121C20.2305 23.1204 20.1663 23.1364 20.0738 23.1601C19.9866 23.1833 19.9195 23.1969 19.8726 23.201C19.8152 23.2061 19.7467 23.2043 19.6671 23.1958C19.5647 22.9925 19.4091 22.6671 19.2004 22.2194C18.9965 21.7662 18.8343 21.4258 18.7139 21.1982C18.3276 22.5057 18.0993 23.468 18.029 24.0851L17.7163 24.0271C17.7071 23.6344 17.7889 22.9413 17.9618 21.9476C18.1343 20.9488 18.2345 20.3136 18.2625 20.0419C18.325 20.0365 18.3961 20.038 18.4757 20.0465C18.5601 20.0495 18.6231 20.0491 18.6648 20.0455C18.8213 20.2647 19.0466 20.6927 19.3407 21.3296C19.6343 21.9613 19.8277 22.3559 19.9208 22.5134C20.2167 21.3692 20.4974 20.5214 20.7628 19.97Z" fill="white"/>
<path d="M22.7372 20.2705L22.5452 19.8913C22.6687 19.7458 22.8312 19.6254 23.0328 19.5301C23.234 19.4296 23.4362 19.3704 23.6395 19.3526C24.5207 19.2752 25.0292 19.9865 25.1648 21.4863C25.1834 21.6917 25.1978 21.9959 25.2079 22.3988C25.2233 22.8013 25.2401 23.1027 25.2582 23.303C25.2309 23.4659 25.1573 23.5526 25.0373 23.5631C24.9435 23.5714 24.8533 23.5327 24.7667 23.4471C24.6801 23.3615 24.6317 23.2622 24.6215 23.1492C24.6182 23.1133 24.6185 23.0874 24.6223 23.0715C24.3269 23.408 23.9968 23.5923 23.6318 23.6244C23.3554 23.6486 23.1041 23.5723 22.8779 23.3954C22.6564 23.213 22.5329 22.9805 22.5074 22.698C22.4642 22.2203 22.6129 21.7724 22.9534 21.3542C23.2992 20.9356 23.712 20.7052 24.1917 20.6631C24.2125 20.6613 24.2336 20.662 24.2549 20.6653C24.2758 20.6635 24.2995 20.664 24.326 20.6668C24.3578 20.6692 24.3815 20.6697 24.3971 20.6684C24.301 20.0711 24.0314 19.7919 23.5882 19.8308C23.3275 19.8537 23.0438 20.0002 22.7372 20.2705ZM24.5899 22.5385C24.5678 22.178 24.5484 21.9054 24.5317 21.7204C24.5177 21.5664 24.493 21.3511 24.4575 21.0746L24.3949 21.0801C24.0252 21.1178 23.6986 21.2836 23.4151 21.5777C23.1369 21.8713 23.0149 22.2082 23.0493 22.5883C23.0642 22.7527 23.1255 22.8793 23.2334 22.9682C23.3465 23.0566 23.4761 23.0944 23.6221 23.0816C23.8515 23.0615 24.1741 22.8804 24.5899 22.5385Z" fill="white"/>
<path d="M30.1932 19.0336L30.5521 19.0798L31.07 22.8007C31.037 22.9589 30.9527 23.0439 30.8172 23.0558C30.7233 23.0641 30.6286 23.0336 30.533 22.9643C30.4378 22.9002 30.3749 22.8151 30.3443 22.709C30.3429 22.6936 30.3271 22.2576 30.297 21.4008L30.2914 21.3392C30.1445 21.3417 29.9276 21.3556 29.6408 21.3807C29.2081 21.4187 28.881 21.4345 28.6597 21.428C28.7127 21.7236 28.79 22.2009 28.8917 22.8598C28.8592 23.0232 28.7751 23.1108 28.6395 23.1227C28.5457 23.1309 28.4512 23.103 28.3561 23.0389C28.2657 22.9692 28.2052 22.8813 28.1745 22.7752C28.167 22.5171 28.1516 22.2595 28.1283 22.0027C28.1135 21.8384 28.0885 21.592 28.0536 21.2638C28.0187 20.9355 27.994 20.6918 27.9796 20.5325C27.935 20.0394 27.9132 19.6246 27.9143 19.288L28.2739 19.3418C28.479 20.4473 28.5856 21.0152 28.5936 21.0455C29.4894 21.0135 29.9503 20.9964 29.9764 20.9941C30.1901 20.9753 30.2959 20.9531 30.2936 20.9274C30.2843 20.8247 30.2652 20.4976 30.2363 19.9462C30.2075 19.3948 30.1931 19.0906 30.1932 19.0336Z" fill="white"/>
<path d="M34.7962 21.8135L34.9051 22.1457C34.6831 22.248 34.3499 22.3704 33.9056 22.513C33.466 22.6499 33.1367 22.728 32.9177 22.7472C32.6935 22.7669 32.4915 22.7121 32.3116 22.583C32.1313 22.4487 31.9892 22.2722 31.8853 22.0535C31.781 21.8297 31.698 21.6092 31.6363 21.392C31.5794 21.1692 31.5411 20.9499 31.5216 20.7342C31.4055 19.4501 31.9366 18.7563 33.115 18.6529C33.3966 18.6282 33.6524 18.6963 33.8824 18.8574C34.112 19.0132 34.2395 19.2324 34.2651 19.5149C34.279 19.669 34.247 19.809 34.1691 19.9349C34.0963 20.0604 34.0006 20.1646 33.882 20.2475C33.7681 20.3247 33.6173 20.4001 33.4295 20.4735C33.2469 20.5465 33.0837 20.6023 32.94 20.6408C32.7964 20.6792 32.6243 20.7228 32.4237 20.7715C32.2231 20.8202 32.0844 20.8556 32.0076 20.8779C32.0263 21.0264 32.046 21.1567 32.0666 21.2688C32.0925 21.3804 32.1297 21.5014 32.1783 21.6317C32.2316 21.7565 32.2935 21.8598 32.364 21.9416C32.4392 22.0178 32.5367 22.0792 32.6565 22.1256C32.7764 22.172 32.9145 22.1884 33.0709 22.1746C33.2586 22.1582 33.4866 22.1226 33.755 22.068C34.0229 22.0083 34.2595 21.9512 34.4648 21.897C34.6753 21.8423 34.7858 21.8145 34.7962 21.8135ZM31.9957 20.3975C32.6867 20.1349 33.249 19.8733 33.6827 19.6126C33.6309 19.4463 33.5702 19.3274 33.5006 19.2559C33.4311 19.1843 33.3338 19.154 33.2086 19.165C32.8906 19.1929 32.6109 19.3262 32.3697 19.5648C32.1338 19.8029 32.0091 20.0805 31.9957 20.3975Z" fill="white"/>
<path d="M9.15561 26.5102C10.2883 26.1667 10.9812 25.9839 11.2345 25.9617C12.2326 25.874 12.7698 26.2522 12.8462 27.096C12.8727 27.3895 12.8464 27.6802 12.7674 27.9682C12.6951 28.2482 12.5885 28.4388 12.4474 28.5399C13.0636 28.8778 13.4026 29.388 13.4643 30.0704C13.5227 30.7161 13.3521 31.2377 12.9526 31.6351C12.5606 32.0319 12.0145 32.2611 11.3143 32.3225C10.48 32.3957 9.83815 32.2302 9.38865 31.8259L9.15561 26.5102ZM10.0424 29.2169L10.345 31.4424C10.5392 31.5141 10.7555 31.5395 10.9938 31.5186C11.4556 31.4781 11.8673 31.2977 12.2287 30.9776C12.5902 30.6574 12.7536 30.3065 12.7191 29.925C12.6952 29.6608 12.5691 29.4278 12.3406 29.226C12.1114 29.0168 11.8367 28.9263 11.5164 28.9544C11.3302 28.9708 10.8389 29.0583 10.0424 29.2169ZM9.72555 26.9594L9.95707 28.6475C10.0675 28.6231 10.2378 28.597 10.468 28.5694C10.6983 28.5418 10.8832 28.5108 11.0227 28.4764C11.1616 28.4346 11.313 28.3658 11.4771 28.2701C11.6404 28.167 11.7609 28.0048 11.8385 27.7835C11.9235 27.5616 11.969 27.2765 11.9751 26.9284C11.8807 26.7148 11.6436 26.6247 11.2637 26.658C11.0924 26.673 10.8265 26.7223 10.4662 26.8057C10.1058 26.8891 9.85896 26.9403 9.72555 26.9594Z" fill="white"/>
<path d="M14.7911 33.16L14.2783 33.0941C14.271 33.0134 14.2346 32.7762 14.1689 32.3826C14.1033 31.989 14.0625 31.7041 14.0466 31.528C14.0333 31.3813 14.0302 31.2225 14.0373 31.0518L14.7636 30.988C14.7895 30.86 14.8322 30.6677 14.8916 30.411C14.9584 30.1537 15.002 29.9724 15.0226 29.867C15.0431 29.7617 15.0704 29.6077 15.1046 29.405C15.1456 29.1943 15.1673 29.0186 15.1696 28.8779C15.1787 28.7291 15.181 28.5477 15.1767 28.3336C15.1798 28.1189 15.1707 27.8941 15.1495 27.6593C15.0997 27.109 15.0213 26.4909 14.9142 25.8051C15.3333 25.7905 15.7741 25.7666 16.2366 25.7334C16.7065 25.6995 17.0911 25.6769 17.3904 25.6654C17.6897 25.6539 17.9981 25.6601 18.3155 25.6841C18.383 26.1811 18.4797 27.0009 18.6056 28.1436C18.7382 29.2783 18.8383 30.0942 18.9058 30.5912L19.7773 30.5147L19.8072 30.8449C19.8244 31.0357 19.8527 31.3068 19.892 31.6584C19.9388 32.0093 19.9674 32.2434 19.9781 32.3608C19.998 32.581 20.0058 32.7504 20.0015 32.8691L19.4888 32.8032C19.4497 32.7031 19.4079 32.5736 19.3635 32.4148C19.3273 32.2627 19.2859 32.0962 19.2395 31.9153C19.1931 31.7345 19.1589 31.6044 19.1367 31.525C18.7101 31.5403 18.0283 31.5557 17.0912 31.5714C16.1616 31.5864 15.4351 31.6058 14.9117 31.6296L14.7911 33.16ZM15.9154 26.4161C15.9179 26.5268 15.9314 26.7586 15.9558 27.1115C15.9795 27.457 15.9923 27.7222 15.994 27.9069C16.0031 28.091 16.004 28.3498 15.9966 28.6832C15.996 29.0087 15.9796 29.2838 15.9474 29.5085C15.9145 29.7259 15.8575 29.9675 15.7765 30.2335C15.7022 30.4915 15.6063 30.7181 15.4888 30.9133L17.9357 30.6985L17.767 26.3424C17.662 26.3442 17.3854 26.3574 16.9372 26.3819C16.4964 26.4058 16.1558 26.4172 15.9154 26.4161Z" fill="white"/>
<path d="M19.8564 28.8992C19.8299 28.6056 19.8301 28.2765 19.8572 27.9117C19.8917 27.5463 19.9544 27.1599 20.0452 26.7526C20.1359 26.3452 20.296 25.9984 20.5254 25.712C20.7547 25.4256 21.037 25.2677 21.3722 25.2383C22.0873 25.1755 22.6897 25.4444 23.1795 26.0448C23.6686 26.6379 23.9483 27.3234 24.0187 28.1012C24.0485 28.4314 24.0411 28.7648 23.9965 29.1016C23.9587 29.4303 23.8796 29.759 23.7591 30.0876C23.6387 30.4162 23.4466 30.6993 23.1828 30.9369C22.9257 31.1665 22.6123 31.3124 22.2426 31.3744C21.5493 31.3465 20.9946 31.1068 20.5783 30.6552C20.1614 30.1962 19.9208 29.6109 19.8564 28.8992ZM21.491 25.8047C21.233 25.857 21.0345 26.111 20.8955 26.567C20.7566 27.0229 20.6799 27.4623 20.6656 27.8851C20.6507 28.3006 20.6574 28.6661 20.686 28.9817C20.7231 29.3926 20.8843 29.763 21.1694 30.093C21.4613 30.415 21.7674 30.5619 22.0877 30.5338C22.3186 30.5135 22.5192 30.4072 22.6895 30.2147C22.8598 30.0223 22.9854 29.7931 23.0665 29.5271C23.1543 29.2531 23.2124 28.9818 23.2406 28.7131C23.2763 28.4437 23.2849 28.2062 23.2663 28.0008C23.2119 27.3991 23.0266 26.8866 22.7105 26.4632C22.3945 26.0397 21.988 25.8203 21.491 25.8047Z" fill="white"/>
<path d="M29.0636 24.9848L29.8174 24.852C30.2794 25.8099 30.8262 27.622 31.4578 30.2883C31.3338 30.3287 31.2085 30.3545 31.0819 30.3656C30.9702 30.3754 30.8382 30.3685 30.6859 30.3449C30.5451 29.9505 30.3541 29.2499 30.1129 28.243C29.8791 27.2355 29.6871 26.5238 29.5369 26.1081C29.225 26.7271 28.8309 27.8489 28.3547 29.4734C28.3032 29.4853 28.2114 29.5082 28.0793 29.542C27.9547 29.5751 27.8589 29.5946 27.7918 29.6005C27.7099 29.6077 27.6121 29.6052 27.4983 29.593C27.352 29.3026 27.1297 28.8376 26.8316 28.1982C26.5403 27.5507 26.3086 27.0644 26.1366 26.7393C25.5848 28.6072 25.2586 29.9818 25.1582 30.8634L24.7115 30.7805C24.6983 30.2196 24.8152 29.2294 25.0622 27.8099C25.3085 26.383 25.4517 25.4756 25.4917 25.0875C25.581 25.0796 25.6826 25.0818 25.7963 25.094C25.9168 25.0982 26.0069 25.0977 26.0665 25.0925C26.29 25.4057 26.6118 26.0172 27.032 26.927C27.4515 27.8295 27.7277 28.3932 27.8606 28.6182C28.2834 26.9836 28.6844 25.7724 29.0636 24.9848Z" fill="white"/>
<path d="M31.8841 25.4139L31.6099 24.8722C31.7863 24.6644 32.0185 24.4924 32.3065 24.3562C32.5938 24.2127 32.8827 24.1281 33.1732 24.1026C34.432 23.9922 35.1584 25.0082 35.3522 27.1508C35.3787 27.4443 35.3992 27.8789 35.4138 28.4545C35.4357 29.0294 35.4597 29.46 35.4855 29.7461C35.4465 29.9788 35.3414 30.1027 35.17 30.1177C35.036 30.1295 34.9071 30.0743 34.7834 29.952C34.6597 29.8297 34.5906 29.6879 34.576 29.5264C34.5713 29.4751 34.5717 29.4381 34.5772 29.4154C34.1552 29.8962 33.6835 30.1595 33.1621 30.2052C32.7673 30.2399 32.4083 30.1309 32.0852 29.8782C31.7688 29.6175 31.5923 29.2854 31.5558 28.8818C31.4941 28.1994 31.7065 27.5595 32.193 26.9621C32.687 26.3641 33.2767 26.035 33.9619 25.9748C33.9917 25.9722 34.0219 25.9733 34.0523 25.978C34.0821 25.9754 34.116 25.9761 34.1539 25.9802C34.1992 25.9836 34.2331 25.9843 34.2554 25.9824C34.1182 25.1291 33.733 24.7302 33.0999 24.7858C32.7274 24.8185 32.3222 25.0279 31.8841 25.4139ZM34.5309 28.654C34.4993 28.139 34.4716 27.7495 34.4477 27.4853C34.4278 27.2652 34.3924 26.9577 34.3417 26.5628L34.2523 26.5706C33.7241 26.6244 33.2576 26.8613 32.8526 27.2814C32.4551 27.7009 32.2809 28.1821 32.33 28.7251C32.3512 28.9599 32.4389 29.1408 32.593 29.2678C32.7546 29.3942 32.9397 29.4482 33.1483 29.4299C33.476 29.4011 33.9369 29.1425 34.5309 28.654Z" fill="white"/>
<path d="M24.4401 10.2144C23.1459 10.2144 22.0967 11.2682 22.0967 12.5681C22.0967 14.9219 24.8662 17.0617 26.3574 17.5594C27.8487 17.0617 30.6182 14.9219 30.6182 12.5681C30.6182 11.2682 29.5689 10.2144 28.2747 10.2144C27.4822 10.2144 26.7814 10.6096 26.3574 11.2145C26.1413 10.9053 25.8543 10.653 25.5205 10.4789C25.1868 10.3048 24.8162 10.2141 24.4401 10.2144Z" fill="#FFF1A8"/>
</svg>
