<svg xmlns="http://www.w3.org/2000/svg" width="44" height="44" viewBox="0 0 44 44" fill="none">
<rect width="44" height="44" rx="22" fill="#6B4EFF"/>
<path d="M14.5053 24.3471L13.9158 24.4532C13.4687 22.7064 13.0212 21.2158 12.5732 19.9816C12.4374 20.3973 12.2982 20.979 12.1556 21.7267C12.0178 22.4687 11.9195 22.9511 11.8608 23.1737C11.8504 23.1746 11.8323 23.1787 11.8067 23.1862C11.7859 23.188 11.7676 23.1896 11.752 23.191C11.679 23.1974 11.5584 23.2002 11.3901 23.1994C11.2219 23.1987 11.1143 23.2004 11.0674 23.2045C11.0487 23.056 10.8709 22.572 10.534 21.7525C10.1966 20.9279 9.99119 20.3997 9.91768 20.168C9.89909 21.0084 9.67115 22.5556 9.23386 24.8098L8.74477 24.8061C8.76713 24.2399 8.86734 23.3432 9.04541 22.1161C9.22347 20.8891 9.30884 19.9445 9.30152 19.2825C9.39444 19.264 9.46958 19.2522 9.52694 19.2472C9.57908 19.2426 9.77386 19.2462 10.1113 19.258C10.1852 19.2619 10.3106 19.4864 10.4875 19.9316C10.6692 20.3713 10.855 20.8572 11.0451 21.3893C11.2351 21.9214 11.3528 22.2346 11.3981 22.329C11.512 21.9618 11.6347 21.3712 11.766 20.5572C11.9026 19.7427 12.0028 19.224 12.0667 19.0009C12.1506 18.9988 12.416 18.9988 12.8629 19.0009C13.0454 19.5078 13.2264 20.0562 13.4059 20.6462C13.5906 21.2357 13.7906 21.9067 14.0058 22.6592C14.2262 23.4113 14.3927 23.9739 14.5053 24.3471Z" fill="white"/>
<path d="M14.8065 20.9659L14.6145 20.5867C14.738 20.4413 14.9006 20.3209 15.1022 20.2255C15.3033 20.125 15.5055 20.0659 15.7089 20.048C16.5901 19.9707 17.0985 20.6819 17.2342 22.1817C17.2527 22.3872 17.2671 22.6914 17.2773 23.0943C17.2927 23.4968 17.3094 23.7982 17.3275 23.9985C17.3002 24.1614 17.2266 24.2481 17.1067 24.2586C17.0128 24.2668 16.9226 24.2282 16.836 24.1426C16.7495 24.057 16.7011 23.9577 16.6908 23.8447C16.6876 23.8087 16.6879 23.7828 16.6917 23.767C16.3963 24.1035 16.0661 24.2878 15.7011 24.3198C15.4248 24.3441 15.1735 24.2678 14.9473 24.0909C14.7258 23.9084 14.6023 23.676 14.5767 23.3935C14.5335 22.9158 14.6822 22.4678 15.0228 22.0497C15.3686 21.631 15.7813 21.4007 16.261 21.3586C16.2819 21.3567 16.303 21.3575 16.3243 21.3608C16.3451 21.3589 16.3688 21.3595 16.3954 21.3623C16.4271 21.3647 16.4508 21.3652 16.4664 21.3638C16.3704 20.7665 16.1007 20.4873 15.6575 20.5262C15.3968 20.5491 15.1132 20.6957 14.8065 20.9659ZM16.6592 23.234C16.6372 22.8735 16.6177 22.6008 16.601 22.4159C16.5871 22.2618 16.5624 22.0466 16.5268 21.7701L16.4643 21.7756C16.0945 21.8132 15.7679 21.9791 15.4845 22.2732C15.2062 22.5668 15.0843 22.9037 15.1186 23.2838C15.1335 23.4481 15.1949 23.5748 15.3028 23.6637C15.4159 23.7521 15.5454 23.7899 15.6914 23.7771C15.9209 23.757 16.2435 23.5759 16.6592 23.234Z" fill="white"/>
<path d="M20.7628 19.9694L21.2905 19.8765C21.6139 20.547 21.9967 21.8155 22.4388 23.6819C22.352 23.7102 22.2643 23.7283 22.1756 23.736C22.0974 23.7429 22.005 23.7381 21.8984 23.7215C21.7999 23.4454 21.6662 22.955 21.4973 22.2502C21.3337 21.5449 21.1993 21.0468 21.0941 20.7558C20.8758 21.1891 20.5999 21.9743 20.2666 23.1115C20.2305 23.1198 20.1663 23.1358 20.0738 23.1595C19.9866 23.1827 19.9195 23.1963 19.8726 23.2004C19.8152 23.2055 19.7467 23.2037 19.6671 23.1952C19.5647 22.9919 19.4091 22.6665 19.2004 22.2188C18.9965 21.7656 18.8343 21.4252 18.7139 21.1976C18.3276 22.5051 18.0993 23.4674 18.029 24.0845L17.7163 24.0265C17.7071 23.6338 17.7889 22.9407 17.9618 21.947C18.1343 20.9482 18.2345 20.313 18.2625 20.0413C18.325 20.0358 18.3961 20.0374 18.4757 20.0459C18.5601 20.0489 18.6231 20.0485 18.6648 20.0449C18.8213 20.2641 19.0466 20.6921 19.3407 21.329C19.6343 21.9607 19.8277 22.3553 19.9208 22.5128C20.2167 21.3686 20.4974 20.5208 20.7628 19.9694Z" fill="white"/>
<path d="M22.7372 20.2698L22.5452 19.8906C22.6687 19.7452 22.8312 19.6248 23.0328 19.5295C23.234 19.429 23.4362 19.3698 23.6395 19.352C24.5207 19.2746 25.0292 19.9858 25.1648 21.4857C25.1834 21.6911 25.1978 21.9953 25.2079 22.3982C25.2233 22.8007 25.2401 23.1021 25.2582 23.3024C25.2309 23.4653 25.1573 23.552 25.0373 23.5625C24.9435 23.5708 24.8533 23.5321 24.7667 23.4465C24.6801 23.3609 24.6317 23.2616 24.6215 23.1486C24.6182 23.1127 24.6185 23.0867 24.6223 23.0709C24.3269 23.4074 23.9968 23.5917 23.6318 23.6238C23.3554 23.648 23.1041 23.5717 22.8779 23.3948C22.6564 23.2124 22.5329 22.9799 22.5074 22.6974C22.4642 22.2197 22.6129 21.7718 22.9534 21.3536C23.2992 20.935 23.712 20.7046 24.1917 20.6625C24.2125 20.6607 24.2336 20.6614 24.2549 20.6647C24.2758 20.6629 24.2995 20.6634 24.326 20.6662C24.3578 20.6686 24.3815 20.6691 24.3971 20.6678C24.301 20.0705 24.0314 19.7913 23.5882 19.8302C23.3275 19.853 23.0438 19.9996 22.7372 20.2698ZM24.5899 22.5379C24.5678 22.1774 24.5484 21.9047 24.5317 21.7198C24.5177 21.5657 24.493 21.3505 24.4575 21.074L24.3949 21.0795C24.0252 21.1172 23.6986 21.283 23.4151 21.5771C23.1369 21.8707 23.0149 22.2076 23.0493 22.5877C23.0642 22.7521 23.1255 22.8787 23.2334 22.9676C23.3465 23.056 23.4761 23.0938 23.6221 23.081C23.8515 23.0609 24.1741 22.8798 24.5899 22.5379Z" fill="white"/>
<path d="M30.1932 19.033L30.5521 19.0792L31.07 22.8001C31.037 22.9583 30.9527 23.0433 30.8172 23.0552C30.7233 23.0635 30.6286 23.0329 30.533 22.9637C30.4378 22.8996 30.3749 22.8145 30.3443 22.7084C30.3429 22.693 30.3271 22.2569 30.297 21.4002L30.2914 21.3386C30.1445 21.3411 29.9276 21.355 29.6408 21.3801C29.2081 21.4181 28.881 21.4339 28.6597 21.4274C28.7127 21.723 28.79 22.2003 28.8917 22.8592C28.8592 23.0226 28.7751 23.1102 28.6395 23.1221C28.5457 23.1303 28.4512 23.1024 28.3561 23.0383C28.2657 22.9685 28.2052 22.8807 28.1745 22.7746C28.167 22.5164 28.1516 22.2589 28.1283 22.0021C28.1135 21.8378 28.0885 21.5914 28.0536 21.2632C28.0187 20.9349 27.994 20.6912 27.9796 20.5319C27.935 20.0388 27.9132 19.624 27.9143 19.2874L28.2739 19.3412C28.479 20.4467 28.5856 21.0146 28.5936 21.0449C29.4894 21.0129 29.9503 20.9957 29.9764 20.9935C30.1901 20.9747 30.2959 20.9525 30.2936 20.9268C30.2843 20.8241 30.2652 20.497 30.2363 19.9456C30.2075 19.3941 30.1931 19.09 30.1932 19.033Z" fill="white"/>
<path d="M34.7962 21.8129L34.9051 22.1451C34.6831 22.2474 34.3499 22.3698 33.9056 22.5123C33.466 22.6493 33.1367 22.7274 32.9177 22.7466C32.6935 22.7663 32.4915 22.7115 32.3116 22.5824C32.1313 22.4481 31.9892 22.2716 31.8853 22.0529C31.781 21.8291 31.698 21.6086 31.6363 21.3914C31.5794 21.1686 31.5411 20.9493 31.5216 20.7336C31.4055 19.4495 31.9366 18.7557 33.115 18.6523C33.3966 18.6276 33.6524 18.6957 33.8824 18.8567C34.112 19.0126 34.2395 19.2318 34.2651 19.5143C34.279 19.6684 34.247 19.8084 34.1691 19.9343C34.0963 20.0598 34.0006 20.1639 33.882 20.2468C33.7681 20.3241 33.6173 20.3995 33.4295 20.4729C33.2469 20.5459 33.0837 20.6016 32.94 20.6401C32.7964 20.6786 32.6243 20.7222 32.4237 20.7709C32.2231 20.8196 32.0844 20.855 32.0076 20.8773C32.0263 21.0258 32.046 21.1561 32.0666 21.2682C32.0925 21.3798 32.1297 21.5008 32.1783 21.6311C32.2316 21.7559 32.2935 21.8592 32.364 21.941C32.4392 22.0172 32.5367 22.0785 32.6565 22.125C32.7764 22.1714 32.9145 22.1878 33.0709 22.174C33.2586 22.1576 33.4866 22.122 33.755 22.0674C34.0229 22.0076 34.2595 21.9506 34.4648 21.8964C34.6753 21.8417 34.7858 21.8138 34.7962 21.8129ZM31.9957 20.3969C32.6867 20.1343 33.249 19.8727 33.6827 19.612C33.6309 19.4457 33.5702 19.3268 33.5006 19.2552C33.4311 19.1837 33.3338 19.1534 33.2086 19.1644C32.8906 19.1923 32.6109 19.3256 32.3697 19.5642C32.1338 19.8023 32.0091 20.0799 31.9957 20.3969Z" fill="white"/>
<path d="M9.15561 26.5096C10.2883 26.1661 10.9812 25.9833 11.2345 25.961C12.2326 25.8734 12.7698 26.2515 12.8462 27.0954C12.8727 27.3889 12.8464 27.6796 12.7674 27.9676C12.6951 28.2476 12.5885 28.4382 12.4474 28.5393C13.0636 28.8772 13.4026 29.3873 13.4643 30.0697C13.5227 30.7155 13.3521 31.237 12.9526 31.6345C12.5606 32.0313 12.0145 32.2604 11.3143 32.3219C10.48 32.3951 9.83815 32.2296 9.38865 31.8253L9.15561 26.5096ZM10.0424 29.2163L10.345 31.4418C10.5392 31.5135 10.7555 31.5389 10.9938 31.518C11.4556 31.4775 11.8673 31.2971 12.2287 30.9769C12.5902 30.6568 12.7536 30.3059 12.7191 29.9244C12.6952 29.6602 12.5691 29.4272 12.3406 29.2254C12.1114 29.0162 11.8367 28.9257 11.5164 28.9538C11.3302 28.9702 10.8389 29.0577 10.0424 29.2163ZM9.72555 26.9588L9.95707 28.6469C10.0675 28.6225 10.2378 28.5964 10.468 28.5688C10.6983 28.5412 10.8832 28.5102 11.0227 28.4757C11.1616 28.434 11.313 28.3652 11.4771 28.2695C11.6404 28.1664 11.7609 28.0042 11.8385 27.7829C11.9235 27.5609 11.969 27.2759 11.9751 26.9278C11.8807 26.7142 11.6436 26.624 11.2637 26.6574C11.0924 26.6724 10.8265 26.7216 10.4662 26.805C10.1058 26.8884 9.85896 26.9397 9.72555 26.9588Z" fill="white"/>
<path d="M14.7911 33.1594L14.2783 33.0935C14.271 33.0128 14.2346 32.7756 14.1689 32.382C14.1033 31.9884 14.0625 31.7035 14.0466 31.5274C14.0333 31.3806 14.0302 31.2219 14.0373 31.0512L14.7636 30.9874C14.7895 30.8594 14.8322 30.6671 14.8916 30.4104C14.9584 30.1531 15.002 29.9718 15.0226 29.8664C15.0431 29.7611 15.0704 29.607 15.1046 29.4044C15.1456 29.1937 15.1673 29.018 15.1696 28.8772C15.1787 28.7285 15.181 28.5471 15.1767 28.333C15.1798 28.1183 15.1707 27.8935 15.1495 27.6587C15.0997 27.1084 15.0213 26.4903 14.9142 25.8045C15.3333 25.7899 15.7741 25.766 16.2366 25.7328C16.7065 25.6989 17.0911 25.6763 17.3904 25.6648C17.6897 25.6533 17.9981 25.6595 18.3155 25.6834C18.383 26.1804 18.4797 27.0003 18.6056 28.143C18.7382 29.2777 18.8383 30.0936 18.9058 30.5906L19.7773 30.5141L19.8072 30.8443C19.8244 31.0351 19.8527 31.3062 19.892 31.6578C19.9388 32.0087 19.9674 32.2428 19.9781 32.3602C19.998 32.5804 20.0058 32.7498 20.0015 32.8685L19.4888 32.8026C19.4497 32.7024 19.4079 32.573 19.3635 32.4142C19.3273 32.262 19.2859 32.0956 19.2395 31.9147C19.1931 31.7339 19.1589 31.6038 19.1367 31.5244C18.7101 31.5396 18.0283 31.5551 17.0912 31.5708C16.1616 31.5858 15.4351 31.6052 14.9117 31.629L14.7911 33.1594ZM15.9154 26.4155C15.9179 26.5262 15.9314 26.758 15.9558 27.1109C15.9795 27.4564 15.9923 27.7215 15.994 27.9063C16.0031 28.0904 16.004 28.3492 15.9966 28.6826C15.996 29.0081 15.9796 29.2832 15.9474 29.5079C15.9145 29.7253 15.8575 29.9669 15.7765 30.2329C15.7022 30.4909 15.6063 30.7175 15.4888 30.9127L17.9357 30.6979L17.767 26.3418C17.662 26.3436 17.3854 26.3568 16.9372 26.3813C16.4964 26.4052 16.1558 26.4166 15.9154 26.4155Z" fill="white"/>
<path d="M19.8564 28.8985C19.8299 28.605 19.8301 28.2759 19.8572 27.9111C19.8917 27.5457 19.9544 27.1593 20.0452 26.752C20.1359 26.3446 20.296 25.9977 20.5254 25.7114C20.7547 25.425 21.037 25.2671 21.3722 25.2377C22.0873 25.1749 22.6897 25.4437 23.1795 26.0442C23.6686 26.6373 23.9483 27.3228 24.0187 28.1006C24.0485 28.4308 24.0411 28.7642 23.9965 29.1009C23.9587 29.4297 23.8796 29.7584 23.7591 30.0869C23.6387 30.4155 23.4466 30.6987 23.1828 30.9363C22.9257 31.1659 22.6123 31.3118 22.2426 31.3738C21.5493 31.3459 20.9946 31.1062 20.5783 30.6546C20.1614 30.1956 19.9208 29.6103 19.8564 28.8985ZM21.491 25.8041C21.233 25.8563 21.0345 26.1104 20.8955 26.5664C20.7566 27.0223 20.6799 27.4617 20.6656 27.8845C20.6507 28.3 20.6574 28.6655 20.686 28.981C20.7231 29.392 20.8843 29.7624 21.1694 30.0924C21.4613 30.4144 21.7674 30.5613 22.0877 30.5332C22.3186 30.5129 22.5192 30.4066 22.6895 30.2141C22.8598 30.0217 22.9854 29.7925 23.0665 29.5265C23.1543 29.2525 23.2124 28.9812 23.2406 28.7124C23.2763 28.4431 23.2849 28.2056 23.2663 28.0002C23.2119 27.3985 23.0266 26.886 22.7105 26.4625C22.3945 26.0391 21.988 25.8197 21.491 25.8041Z" fill="white"/>
<path d="M29.0636 24.9841L29.8174 24.8514C30.2794 25.8093 30.8262 27.6214 31.4578 30.2876C31.3338 30.3281 31.2085 30.3539 31.0819 30.365C30.9702 30.3748 30.8382 30.3679 30.6859 30.3443C30.5451 29.9499 30.3541 29.2492 30.1129 28.2424C29.8791 27.2349 29.6871 26.5232 29.5369 26.1075C29.225 26.7265 28.8309 27.8483 28.3547 29.4728C28.3032 29.4847 28.2114 29.5076 28.0793 29.5414C27.9547 29.5745 27.8589 29.594 27.7918 29.5999C27.7099 29.6071 27.6121 29.6046 27.4983 29.5923C27.352 29.302 27.1297 28.837 26.8316 28.1976C26.5403 27.5501 26.3086 27.0638 26.1366 26.7387C25.5848 28.6065 25.2586 29.9812 25.1582 30.8628L24.7115 30.7799C24.6983 30.219 24.8152 29.2288 25.0622 27.8093C25.3085 26.3824 25.4517 25.475 25.4917 25.0869C25.581 25.079 25.6826 25.0812 25.7963 25.0934C25.9168 25.0976 26.0069 25.0971 26.0665 25.0919C26.29 25.4051 26.6118 26.0166 27.032 26.9264C27.4515 27.8288 27.7277 28.3926 27.8606 28.6176C28.2834 26.983 28.6844 25.7718 29.0636 24.9841Z" fill="white"/>
<path d="M31.8841 25.4133L31.6099 24.8716C31.7863 24.6638 32.0185 24.4918 32.3065 24.3556C32.5938 24.2121 32.8827 24.1275 33.1732 24.102C34.432 23.9915 35.1584 25.0076 35.3522 27.1502C35.3787 27.4437 35.3992 27.8782 35.4138 28.4539C35.4357 29.0288 35.4597 29.4594 35.4855 29.7455C35.4465 29.9782 35.3414 30.1021 35.17 30.1171C35.036 30.1289 34.9071 30.0737 34.7834 29.9514C34.6597 29.8291 34.5906 29.6873 34.576 29.5258C34.5713 29.4745 34.5717 29.4375 34.5772 29.4148C34.1552 29.8956 33.6835 30.1589 33.1621 30.2046C32.7673 30.2393 32.4083 30.1303 32.0852 29.8776C31.7688 29.6169 31.5923 29.2848 31.5558 28.8812C31.4941 28.1988 31.7065 27.5589 32.193 26.9615C32.687 26.3635 33.2767 26.0344 33.9619 25.9742C33.9917 25.9716 34.0219 25.9727 34.0523 25.9774C34.0821 25.9748 34.116 25.9755 34.1539 25.9796C34.1992 25.983 34.2331 25.9837 34.2554 25.9818C34.1182 25.1285 33.733 24.7296 33.0999 24.7852C32.7274 24.8179 32.3222 25.0273 31.8841 25.4133ZM34.5309 28.6534C34.4993 28.1384 34.4716 27.7489 34.4477 27.4847C34.4278 27.2646 34.3924 26.9571 34.3417 26.5622L34.2523 26.57C33.7241 26.6238 33.2576 26.8607 32.8526 27.2808C32.4551 27.7003 32.2809 28.1815 32.33 28.7245C32.3512 28.9593 32.4389 29.1402 32.593 29.2672C32.7546 29.3936 32.9397 29.4476 33.1483 29.4293C33.476 29.4005 33.9369 29.1419 34.5309 28.6534Z" fill="white"/>
<path d="M24.4401 10.2139C23.1459 10.2139 22.0967 11.2677 22.0967 12.5676C22.0967 14.9214 24.8662 17.0612 26.3574 17.5589C27.8487 17.0612 30.6182 14.9214 30.6182 12.5676C30.6182 11.2677 29.5689 10.2139 28.2747 10.2139C27.4822 10.2139 26.7814 10.6091 26.3574 11.214C26.1413 10.9049 25.8543 10.6525 25.5205 10.4785C25.1868 10.3044 24.8162 10.2136 24.4401 10.2139Z" fill="#FFF1A8"/>
</svg>